<svg width="240" height="200" viewBox="0 0 240 200" fill="none" xmlns="http://www.w3.org/2000/svg">
<path d="M0 0H240V200H0V0Z" fill="url(#paint0_linear_4768_39428)"/>
<mask id="mask0_4768_39428" style="mask-type:luminance" maskUnits="userSpaceOnUse" x="60" y="25" width="120" height="150">
<path d="M180 25H60V175H180V25Z" fill="white"/>
</mask>
<g mask="url(#mask0_4768_39428)">
<path d="M95.257 63.4534C92.281 61.7423 91.2715 57.935 93.0023 54.9495L104.842 34.528C106.572 31.5425 110.388 30.5094 113.364 32.2205L118.154 34.9745C121.13 36.6856 122.139 40.4929 120.408 43.4784L108.569 63.9C106.839 66.8854 103.023 67.9185 100.047 66.2074L95.257 63.4534Z" fill="#274446"/>
<path d="M82.8811 35.9164C84.5157 33.0968 88.1194 32.1211 90.9301 33.7371L112.185 45.9579C114.996 47.574 115.949 51.1698 114.314 53.9894C112.68 56.809 109.076 57.7847 106.265 56.1687L85.0105 43.9479C82.1998 42.3319 81.2464 38.7361 82.8811 35.9164Z" fill="#274446"/>
<path d="M109.009 50.7457C110.307 48.5067 113.157 47.7252 115.389 49.0082C123.08 53.4288 140.136 63.2331 151.955 70.0325C152.821 70.5307 153.552 71.2322 154.087 72.0752C155.071 73.6239 155.824 74.8091 156.4 75.7162C157.566 77.5528 156.948 78.7047 154.765 78.7549C153.662 78.7803 152.212 78.8137 150.307 78.8576C149.171 78.8838 148.051 78.5997 147.069 78.0349C135.514 71.3912 118.401 61.5522 110.688 57.1171C108.455 55.8337 107.711 52.985 109.009 50.7457Z" fill="#274446"/>
<path d="M118 54L149.496 72.1328" stroke="#A0B9B0" stroke-width="2" stroke-linecap="round"/>
<path d="M93.8677 55.4569L105.707 35.0354C107.163 32.5235 110.368 31.6613 112.861 33.0947L117.651 35.8486C120.144 37.282 120.996 40.477 119.54 42.989L107.701 63.4105C106.245 65.9224 103.04 66.7846 100.547 65.3513L95.757 62.5973C93.264 61.1639 92.4114 57.9689 93.8677 55.4569Z" fill="#C5D2CD" stroke="#274446" stroke-width="2"/>
<path d="M166 95.3289C166 97.0734 165.356 98.7464 164.21 99.98C163.064 101.213 161.509 101.906 159.889 101.906C158.268 101.906 156.713 101.213 155.567 99.98C154.421 98.7464 153.777 97.0734 153.777 95.3289C153.777 89.409 159.889 84.8047 159.889 84.8047C159.889 84.8047 166 89.409 166 95.3289Z" fill="#274446"/>
<path d="M164.203 96.1002C164.044 97.0529 163.619 97.9305 162.983 98.6148C162.347 99.2991 161.531 99.7572 160.646 99.9276C160.613 99.9334 160.579 99.9364 160.545 99.9366C160.391 99.9366 160.244 99.8745 160.131 99.7628C160.018 99.651 159.948 99.4977 159.936 99.3333C159.923 99.1689 159.968 99.0053 160.062 98.8751C160.156 98.7448 160.293 98.6574 160.444 98.6301C161.71 98.4007 162.784 97.2447 162.998 95.8799C163.025 95.7078 163.115 95.5544 163.247 95.4534C163.379 95.3524 163.543 95.3121 163.703 95.3413C163.863 95.3705 164.006 95.4669 164.1 95.6092C164.193 95.7516 164.23 95.9282 164.203 96.1002Z" fill="#C5D2CD"/>
<path d="M97.2357 124.309H126.829C127.172 124.306 127.512 124.371 127.83 124.501C128.148 124.63 128.436 124.821 128.679 125.063C128.921 125.305 129.113 125.593 129.243 125.909C129.373 126.225 129.439 126.565 129.436 126.906V148.453C129.439 148.795 129.373 149.134 129.243 149.45C129.113 149.767 128.921 150.054 128.679 150.296C128.436 150.538 128.148 150.729 127.83 150.859C127.512 150.988 127.172 151.053 126.829 151.051H97.2357C96.8926 151.053 96.5523 150.988 96.2348 150.859C95.9172 150.729 95.6287 150.538 95.3861 150.296C95.1435 150.054 94.9516 149.767 94.8216 149.45C94.6916 149.134 94.6261 148.795 94.629 148.453V126.906C94.6755 126.233 94.9651 125.599 95.4442 125.121C95.9234 124.644 96.5597 124.355 97.2357 124.309Z" fill="white"/>
<path d="M138.18 118.807V164.956C138.25 166.21 137.823 167.441 136.991 168.384C136.16 169.327 134.99 169.907 133.733 169.999H90.4931C89.2367 169.907 88.0668 169.327 87.2352 168.384C86.4036 167.441 85.9767 166.21 86.0464 164.956V118.807C86.0554 114.602 87.2222 110.479 89.4198 106.888L92.1798 102.304V95.8857H90.7998C90.4765 95.8898 90.1556 95.8294 89.8561 95.708C89.5566 95.5866 89.2845 95.4066 89.0558 95.1788C88.8272 94.9509 88.6466 94.6797 88.5248 94.3813C88.403 94.0828 88.3423 93.763 88.3464 93.4408V89.7733C88.3423 89.4511 88.403 89.1313 88.5248 88.8328C88.6466 88.5343 88.8272 88.2632 89.0558 88.0353C89.2845 87.8074 89.5566 87.6275 89.8561 87.5061C90.1556 87.3847 90.4765 87.3242 90.7998 87.3283H133.427C133.75 87.3242 134.071 87.3847 134.37 87.5061C134.67 87.6275 134.942 87.8074 135.171 88.0353C135.399 88.2632 135.58 88.5343 135.702 88.8328C135.823 89.1313 135.884 89.4511 135.88 89.7733V93.4408C135.884 93.763 135.823 94.0828 135.702 94.3813C135.58 94.6797 135.399 94.9509 135.171 95.1788C134.942 95.4066 134.67 95.5866 134.37 95.708C134.071 95.8294 133.75 95.8898 133.427 95.8857H132.047V102.304L134.807 106.888C137.022 110.471 138.19 114.599 138.18 118.807Z" fill="#274446"/>
<path d="M129.166 108L132.114 113.274C133.114 115.063 133.639 117.079 133.639 119.129L133.637 164.001C133.637 165.105 132.741 166.001 131.637 166.001H124.164" stroke="#A0B9B0" stroke-width="2" stroke-linecap="round"/>
<path d="M121.05 140.106C121.05 142.632 120.117 145.056 118.457 146.842C116.797 148.629 114.546 149.632 112.199 149.632C109.851 149.632 107.6 148.629 105.94 146.842C104.28 145.056 103.348 142.632 103.348 140.106C103.348 131.532 112.199 124.863 112.199 124.863C112.199 124.863 121.05 131.532 121.05 140.106Z" fill="#C5D2CD"/>
<path d="M117.287 128.643C115.92 126.945 114.382 125.415 112.701 124.083C112.552 123.97 112.374 123.91 112.193 123.91C112.011 123.91 111.834 123.97 111.685 124.083C110.007 125.415 108.472 126.945 107.108 128.643C104.066 132.403 102.461 136.366 102.461 140.105C102.461 142.884 103.487 145.55 105.313 147.515C107.139 149.48 109.615 150.584 112.197 150.584C114.779 150.584 117.256 149.48 119.082 147.515C120.908 145.55 121.933 142.884 121.933 140.105C121.933 136.366 120.328 132.403 117.287 128.643ZM112.197 148.679C110.085 148.677 108.06 147.772 106.567 146.165C105.074 144.558 104.234 142.378 104.231 140.105C104.231 133.29 110.368 127.601 112.197 126.053C114.026 127.601 120.163 133.288 120.163 140.105C120.161 142.378 119.321 144.558 117.827 146.165C116.334 147.772 114.309 148.677 112.197 148.679ZM118.381 141.217C118.151 142.597 117.535 143.868 116.614 144.859C115.693 145.85 114.511 146.514 113.229 146.761C113.181 146.769 113.132 146.773 113.082 146.774C112.86 146.774 112.646 146.684 112.483 146.522C112.32 146.36 112.219 146.138 112.2 145.9C112.182 145.662 112.248 145.425 112.384 145.236C112.52 145.048 112.717 144.921 112.936 144.882C114.77 144.549 116.325 142.875 116.636 140.898C116.675 140.649 116.805 140.427 116.997 140.281C117.188 140.134 117.426 140.076 117.657 140.118C117.889 140.161 118.095 140.3 118.231 140.506C118.367 140.712 118.421 140.968 118.382 141.217H118.381Z" fill="#274446"/>
<path d="M89.8809 95.708C90.1804 95.8294 90.5013 95.8898 90.8246 95.8857H126.999C126.999 95.8857 133.128 95.8816 133.451 95.8857C133.775 95.8898 134.096 95.8294 134.395 95.708C134.695 95.5866 134.967 95.4066 135.195 95.1788C135.424 94.9509 135.605 94.6797 135.726 94.3813C135.848 94.0828 135.909 93.763 135.905 93.4408V89.7733C135.909 89.4511 135.848 89.1313 135.726 88.8328C135.605 88.5343 135.424 88.2632 135.195 88.0353C134.967 87.8074 134.695 87.6275 134.395 87.5061C134.096 87.3847 133.775 87.3242 133.451 87.3283H90.8246C90.5013 87.3242 90.1804 87.3847 89.8809 87.5061C89.5814 87.6275 89.3093 87.8074 89.0807 88.0353C88.852 88.2632 88.6715 88.5343 88.5496 88.8328C88.4278 89.1313 88.3672 89.4511 88.3713 89.7733V93.4408C88.3672 93.763 88.4278 94.0828 88.5496 94.3813C88.6715 94.6797 88.852 94.9509 89.0807 95.1788C89.3093 95.4066 89.5814 95.5866 89.8809 95.708Z" fill="#C5D2CD" stroke="#274446" stroke-width="2"/>
</g>
<defs>
<linearGradient id="paint0_linear_4768_39428" x1="120" y1="0" x2="120" y2="200" gradientUnits="userSpaceOnUse">
<stop stop-color="#F3F3F5"/>
<stop offset="0.47" stop-color="#EEECEF"/>
<stop offset="1" stop-color="#E2E0E3"/>
</linearGradient>
</defs>
</svg>
