<svg width="240" height="200" viewBox="0 0 240 200" fill="none" xmlns="http://www.w3.org/2000/svg">
<path d="M0 0H240V200H0V0Z" fill="url(#paint0_linear_4768_39425)"/>
<path d="M109.332 36.228C109.14 36.3561 108.883 37.2526 108.755 38.2132C108.338 41.8954 108.274 42.1196 107.633 41.9595C107.281 41.8634 106.768 41.9915 106.48 42.1836C106.031 42.5358 105.967 43.0481 106.095 45.6737C106.255 48.5555 106.223 48.7476 105.614 48.8436C104.461 49.0037 104.268 49.8042 104.685 52.654C105.005 54.9914 105.005 55.3116 104.525 55.6638C104.14 55.952 104.044 56.4002 104.172 57.5209C104.332 58.8978 104.268 59.0258 103.147 59.9544C102.377 60.5628 101.672 61.5874 101.192 62.676C100.583 64.1489 100.326 64.4691 99.4932 64.6612C98.3074 64.8854 95.4231 66.4543 93.7887 67.7031C91.1608 69.7844 88.7252 74.8114 88.0522 79.5503C87.7317 81.8237 87.7317 82.6242 88.1804 84.6414L88.6611 87.0428L87.8279 87.6832C86.6741 88.5157 85.5525 89.6684 84.4629 91.0453L83.5976 92.166L83.1169 91.4295C82.508 90.597 81.6106 90.501 81.0338 91.2054C80.6812 91.6216 80.3928 91.2694 79.0148 88.7399C78.1495 87.1069 77.2201 85.5059 76.9317 85.1857C76.3869 84.5773 75.5536 84.4813 75.0409 84.9936C74.7845 85.2498 73.8872 84.5453 71.7079 82.272C68.5032 78.9099 67.702 78.5577 67.1252 80.2547C66.8367 81.0232 67.029 81.5675 68.2789 84.1291L69.7851 87.1069L68.9839 87.4911C67.6379 88.0995 67.9904 89.1881 70.2978 91.6536C72.1886 93.6389 72.3489 93.927 72.1886 94.8556C71.9323 96.0723 72.413 96.6487 74.6884 98.1216L76.2266 99.1142L75.2652 100.203C73.2462 102.508 72.8616 103.693 72.8616 107.375C72.8616 110.385 72.9578 110.961 73.791 112.69C74.2717 113.779 75.1691 115.124 75.7459 115.7L76.8355 116.757L76.2266 117.942C75.9062 118.614 75.4254 120.087 75.2332 121.272C74.2397 126.555 76.8355 131.614 81.867 134.112C83.5976 134.976 84.0142 135.04 87.283 135.072C90.2635 135.072 91.0326 134.976 92.3786 134.336L93.9489 133.632L95.2949 134.88C96.4166 135.937 99.5893 137.474 100.583 137.474C101.16 137.474 100.903 137.826 98.9804 139.779C96.9294 141.796 96.4166 142.949 97.0255 143.942C97.346 144.454 97.1857 144.806 96 146.375C93.0196 150.218 92.4427 152.011 94.013 152.395C94.4617 152.491 94.8142 152.811 94.8142 153.067C94.8142 153.323 94.4617 154.796 94.013 156.365C92.9875 160.016 92.9555 160.848 93.9489 160.848C94.9424 160.848 95.327 160.496 97.5383 157.582L99.397 155.085L100.134 155.885C100.551 156.333 101.064 156.589 101.32 156.493C101.833 156.301 103.339 153.131 104.268 150.346C104.653 149.129 104.941 148.681 105.262 148.809C106.191 149.161 106.992 147.624 108.755 142.053C109.748 138.915 110.582 136.257 110.614 136.097C110.646 135.969 110.678 139.235 110.678 143.301C110.678 151.498 111.094 154.604 113.049 160.912C114.556 165.683 114.331 165.523 116.735 164.178C119.01 162.897 119.074 162.641 117.76 158.767C116.03 153.644 115.004 148.264 114.844 143.237C114.684 139.043 114.748 138.595 115.132 140.42C115.261 140.932 115.517 141.316 115.773 141.316C115.998 141.316 116.51 142.213 116.927 143.301C118.786 148.521 120.068 150.282 121.286 149.289C121.702 148.937 122.055 149.161 123.593 150.826C124.618 151.883 125.804 153.003 126.253 153.291C127.054 153.804 128.144 153.708 128.144 153.131C128.144 152.971 129.041 153.516 130.131 154.316C132.598 156.141 133.784 156.173 133.72 154.444C133.72 153.836 133.175 152.107 132.534 150.634C131.445 148.136 131.381 147.88 131.861 147.368C132.598 146.535 132.246 145.511 130.547 143.654L129.137 142.053L131.06 141.38C133.848 140.42 136.284 138.851 138.175 136.833C139.617 135.233 141.283 132.447 141.283 131.518C141.283 131.326 142.341 130.91 143.591 130.59C147.468 129.661 150.449 128.06 152.788 125.691C156.089 122.328 157.435 118.102 156.634 113.523C156.41 112.338 156.378 111.378 156.538 111.314C156.698 111.25 158.044 110.609 159.551 109.841C161.986 108.656 162.275 108.4 162.211 107.663C162.179 106.927 162.403 106.735 163.877 106.126C165.96 105.262 166.441 104.75 165.992 103.949C165.736 103.405 166.024 103.085 167.979 101.516C171.28 98.9221 173.78 96.3285 173.556 95.7201C173.235 94.9196 172.242 95.1117 169.486 96.4886C168.075 97.193 166.858 97.7694 166.794 97.7694C166.697 97.7694 166.601 97.4492 166.537 97.0329C166.345 95.7201 164.999 95.9443 162.691 97.7053C161.089 98.9541 160.512 99.2423 160.096 98.9861C159.326 98.5698 158.525 98.89 156.922 100.235L155.544 101.388L155.32 99.4984C154.968 96.9048 154.198 94.5034 153.077 92.7743C152.564 91.9738 152.115 91.2054 152.083 91.0773C152.051 90.9172 152.788 90.2128 153.75 89.4443C155.256 88.2596 155.416 88.0034 155.256 87.1709C155.096 86.3384 155.256 86.1143 156.826 84.9296C158.813 83.4246 159.23 82.6242 158.429 81.7596C157.916 81.1833 157.948 80.9271 159.391 76.9247C160.833 72.9863 160.897 72.6661 160.384 72.2819C159.583 71.7055 159.198 71.9297 157.275 74.139L155.608 76.0602L154.968 75.2277C154.166 74.107 153.686 74.171 152.596 75.5158L151.667 76.6365L151.122 75.3878C150.385 73.7548 148.238 71.6735 146.507 70.9691C145.77 70.6489 145.129 70.2647 145.129 70.1366C145.129 70.0085 145.417 68.9839 145.802 67.8952C147.116 64.0209 146.219 60.2106 143.27 57.0406C142.469 56.1761 142.02 55.4717 142.213 55.3436C142.405 55.2475 142.565 54.7673 142.565 54.319C142.565 53.7747 143.014 53.0702 144.007 52.1737C145.578 50.7008 145.834 49.6441 144.841 49.0998C144.232 48.7796 144.264 48.6836 145.321 46.8264C145.93 45.7378 146.411 44.6811 146.411 44.425C146.411 43.6885 145.514 43.5284 144.616 44.1368C143.847 44.6491 143.751 44.6491 143.206 44.1368C142.341 43.3363 141.219 43.7526 140.001 45.2575C139.168 46.3141 138.912 46.4742 138.431 46.154C137.662 45.6737 136.861 46.0259 136.508 46.9225C136.348 47.3387 136.059 48.0752 135.835 48.6195L135.451 49.5801L134.938 48.7796C133.688 46.9225 131.477 44.8732 129.778 44.0728C127.15 42.824 123.881 42.824 121.35 44.0728C119.235 45.1294 118.85 45.5136 117.6 47.819C116.799 49.2919 116.446 49.6121 115.293 49.9323C114.524 50.1565 113.851 50.3166 113.818 50.2525C113.754 50.1885 113.851 49.42 114.043 48.5235C114.235 47.6269 114.363 46.4102 114.299 45.8338C114.203 44.9053 114.075 44.7772 113.338 44.7772C112.825 44.8092 112.44 44.7131 112.44 44.6171C112.44 43.5284 111.03 37.2846 110.678 36.7083C110.133 35.9078 109.941 35.8438 109.332 36.228ZM110.518 44.9373C110.518 45.7698 111.351 47.4028 111.832 47.5629C112.12 47.6589 112.056 48.4914 111.639 50.6367C111.094 53.3904 111.094 53.6146 111.607 54.1909C112.12 54.7352 112.088 54.8953 111.479 56.4963C110.966 57.7451 110.87 58.3534 111.094 58.7377C111.351 59.1219 111.159 59.9544 110.357 61.9396C109.78 63.4125 109.172 64.6613 109.011 64.6933C108.851 64.7573 108.338 63.8288 107.89 62.644C106.768 59.6982 106.64 59.0899 107.185 58.8978C107.761 58.6736 107.761 57.3928 107.153 55.1835C106.576 53.0062 106.544 52.2697 107.088 52.4619C107.697 52.686 108.338 52.1417 108.37 51.3092C108.37 50.8929 108.274 49.2599 108.146 47.723C107.89 44.9693 107.922 44.8733 108.531 45.0654C108.947 45.1934 109.364 45.0974 109.62 44.8092C110.197 44.1368 110.518 44.1688 110.518 44.9373ZM141.732 47.6589C142.245 48.0432 142.277 48.2353 141.956 49.0678C141.668 49.7402 141.636 50.1885 141.892 50.6367C142.149 51.1491 142.052 51.4052 141.251 52.1737C140.706 52.686 140.13 53.4224 140.001 53.8067C139.745 54.4471 139.649 54.4791 138.175 54.0948C136.444 53.6466 136.284 53.2944 136.893 51.5013C137.213 50.6047 137.566 50.1885 138.111 50.0604C138.527 49.9643 139.296 49.2599 139.841 48.5555C140.931 47.0185 140.931 47.0506 141.732 47.6589ZM105.71 62.4199C106.063 63.2524 106.351 64.0529 106.351 64.213C106.351 64.4691 103.211 64.277 102.89 63.9888C102.538 63.6686 104.332 60.947 104.909 60.947C104.973 60.947 105.326 61.6194 105.71 62.4199ZM153.942 78.2375C154.198 79.006 155.288 79.07 156.249 78.3976L156.954 77.8853L156.314 79.7424C155.961 80.767 155.769 81.9518 155.865 82.4C155.993 83.1045 155.737 83.3926 154.07 84.5773C152.276 85.8581 152.147 86.0182 152.243 87.0749C152.34 88.0034 152.179 88.2596 151.378 88.8039C150.417 89.4123 150.385 89.4123 149.359 88.7719C148.173 88.0034 148.173 87.8754 148.846 84.2892C149.519 80.5109 149.584 80.3828 150.096 80.7991C150.865 81.4394 151.731 80.8631 152.532 79.1981C153.365 77.469 153.654 77.2769 153.942 78.2375ZM72.8296 86.3704C74.3999 88.2596 75.137 88.6758 75.81 88.0995C76.1305 87.8433 76.3869 87.8113 76.451 88.0034C76.5151 88.1635 77.3163 89.7645 78.2456 91.5256C79.9762 94.8236 80.7453 95.464 81.835 94.5674C82.2195 94.2472 82.3157 94.3753 82.4759 95.1118C82.6041 95.592 82.7964 96.2965 82.9566 96.6487C83.4053 97.6093 83.918 99.7546 83.918 100.555C83.918 101.195 83.6937 101.131 81.1299 99.6265C75.3934 96.3605 74.5602 95.7842 74.9127 95.4319C75.6177 94.7275 75.2332 93.927 73.1821 91.8458C72.0284 90.661 71.099 89.5724 71.099 89.4443C71.099 89.3162 71.3234 89.1241 71.5797 88.996C72.2848 88.7399 72.1566 87.6192 71.2593 85.666C70.3299 83.6488 70.2658 83.2646 71.0349 84.1931C71.3234 84.5774 72.1566 85.5699 72.8296 86.3704ZM165.704 100.331C166.217 100.331 165.896 100.683 164.454 101.772C163.332 102.604 162.371 103.629 162.179 104.109C161.954 104.75 161.506 105.134 160.544 105.454C158.974 105.966 158.14 106.799 158.365 107.663C158.493 108.176 158.204 108.4 156.89 108.944L155.288 109.617L154.391 108.592L153.525 107.535L154.262 106.094C155.288 104.077 158.14 101.356 158.653 101.868C159.326 102.54 159.967 102.284 162.083 100.651C164.069 99.1142 164.166 99.0822 164.582 99.6905C164.839 100.043 165.351 100.331 165.704 100.331ZM118.273 135.297C120.997 136.93 122.055 137.826 122.055 138.466C122.055 138.851 122.824 139.651 124.074 140.548C125.163 141.348 126.67 142.597 127.407 143.269C128.56 144.358 128.721 144.646 128.4 145.127C128.112 145.575 128.336 146.279 129.554 148.777C130.387 150.474 131.028 152.043 130.964 152.203C130.9 152.395 129.97 151.755 128.881 150.794C127.791 149.801 126.798 149.001 126.67 149.001C126.541 149.001 126.189 149.225 125.9 149.481C125.388 149.929 125.195 149.801 123.497 147.816C122.119 146.183 121.382 145.607 120.645 145.479C119.683 145.319 119.619 145.191 118.594 141.957C118.017 140.099 117.312 138.146 117.087 137.634C116.575 136.545 116.126 134.272 116.414 134.272C116.51 134.272 117.344 134.72 118.273 135.297ZM107.345 140.324C106.095 144.23 105.967 144.486 105.134 144.582C104.332 144.678 104.14 144.998 102.922 148.2C102.185 150.122 101.512 151.979 101.416 152.331C101.288 152.875 101.224 152.875 100.743 152.395C100.038 151.691 99.3009 152.139 97.7626 154.124C97.1216 154.989 96.4807 155.693 96.3525 155.693C96.2564 155.725 96.3525 154.956 96.6089 154.028C97.2178 151.723 97.1857 151.082 96.3525 150.538L95.6154 150.058L97.0575 148.168C97.8587 147.144 99.0445 145.607 99.6854 144.806C100.999 143.269 101.224 142.181 100.391 141.7C99.9739 141.476 100.262 141.06 102.153 139.427C103.403 138.37 104.685 137.474 105.005 137.474C105.294 137.442 106.191 137.09 106.992 136.673C107.794 136.289 108.499 135.969 108.531 136.033C108.595 136.097 108.05 138.018 107.345 140.324ZM113.37 149.641C113.915 152.619 114.908 156.461 115.837 159.311C116.607 161.681 116.639 162.449 115.934 162.449C115.517 162.449 115.1 161.264 114.171 157.518C112.921 152.523 112.44 148.585 112.505 143.718L112.537 139.235L112.761 143.397C112.889 145.671 113.178 148.489 113.37 149.641Z" fill="#274446"/>
<path d="M106.998 44.3023L110.1 43.1094L113.201 46.688L112.249 59.8097L109.147 65.7741L101.988 65.0584L103.181 60.764L105.09 59.094L106.283 50.9824L106.998 44.3023Z" fill="#C5D2CD"/>
<path d="M70.9731 87.2498L69.0664 82.7188L73.5984 84.6264L83.6168 95.8394L84.8097 101.804L77.6524 99.6457L77.4157 99.1796L76.8346 98.8012L70.2574 90.3513L70.9731 87.2498Z" fill="#C5D2CD"/>
<path d="M98.6506 154.293L96.2658 157.156L94.2148 149.812L102.346 137.164L107.776 134.422L110.104 135.922L107.221 142.248L107.011 142.909L101.275 154.69L98.6506 154.293Z" fill="#C5D2CD"/>
<path d="M126.323 152.381L132.289 153.575L129.425 144.032L122.398 135.729L116.968 132.988L114.641 134.487L117.523 140.814L119.883 146.655L123.699 149.041L126.323 152.381Z" fill="#C5D2CD"/>
<path d="M115.107 163.594L117.732 162.64L115.346 153.573L113.675 143.076L112.374 138.305L111.29 139.737L111.289 145.223L112.374 150.367L113.199 156.437L115.107 163.594Z" fill="#C5D2CD"/>
<path d="M164.842 98.3286L168.314 98.3281L167.474 100.962L156.259 110.979L153.281 109.437L153.284 105.62L153.762 104.905L154.239 103.95L160.202 99.8953L164.842 98.3286Z" fill="#C5D2CD"/>
<path d="M153.926 77.0384L157.577 75.8711V81.7633L152.093 89.6357H148.752L147.559 88.2042L147.082 87.0113L148.274 81.2864L149.86 80.124L153.926 77.0384Z" fill="#C5D2CD"/>
<path d="M137.772 47.6454L142.543 46.9297L143.259 50.5083L139.442 55.9956L135.863 53.3712L137.772 47.6454Z" fill="#C5D2CD"/>
<path d="M109.324 36.2281C109.132 36.3562 108.875 37.2527 108.747 38.2133C108.331 41.8955 108.266 42.1197 107.625 41.9596C107.273 41.8635 106.76 41.9916 106.472 42.1837C106.023 42.5359 105.959 43.0482 106.087 45.6738C106.247 48.5556 106.215 48.7477 105.606 48.8437C104.453 49.0038 104.26 49.8043 104.677 52.654C104.998 54.9915 104.998 55.3117 104.517 55.6639C104.132 55.9521 104.036 56.4003 104.164 57.521C104.325 58.8978 104.26 59.0259 103.139 59.9545C102.37 60.5629 101.665 61.5875 101.184 62.6761C100.575 64.149 100.319 64.4692 99.4853 64.6613C98.2996 64.8855 95.4153 66.4544 93.7809 67.7032C91.153 69.7845 88.7174 74.8115 88.0444 79.5504C87.7239 81.8238 87.7239 82.6242 88.1726 84.6415L88.6533 87.0429L87.82 87.6833C86.6663 88.5158 85.5447 89.6685 84.455 91.0454L83.5898 92.166L83.109 91.4296C82.5001 90.5971 81.6028 90.501 81.026 91.2055C80.6734 91.6217 80.385 91.2695 79.007 88.74C78.1417 87.107 77.2123 85.506 76.9239 85.1858C76.3791 84.5774 75.5458 84.4814 75.0331 84.9937C74.7767 85.2498 73.8794 84.5454 71.7001 82.272C68.4954 78.91 67.6942 78.5578 67.1173 80.2548C66.8289 81.0233 67.0212 81.5676 68.2711 84.1292L69.7773 87.107L68.9761 87.4912C67.6301 88.0996 67.9826 89.1882 70.29 91.6537C72.1808 93.6389 72.3411 93.9271 72.1808 94.8557C71.9244 96.0724 72.4052 96.6488 74.6805 98.1217L76.2188 99.1143L75.2574 100.203C73.2384 102.508 72.8538 103.693 72.8538 107.375C72.8538 110.385 72.95 110.961 73.7832 112.69C74.2639 113.779 75.1613 115.124 75.7381 115.7L76.8277 116.757L76.2188 117.942C75.8983 118.614 75.4176 120.087 75.2253 121.272C74.2319 126.555 76.8277 131.614 81.8592 134.112C83.5898 134.976 84.0064 135.04 87.2752 135.072C90.2557 135.072 91.0248 134.976 92.3708 134.336L93.9411 133.632L95.2871 134.88C96.4088 135.937 99.5815 137.474 100.575 137.474C101.152 137.474 100.895 137.826 98.9726 139.779C96.9215 141.796 96.4088 142.949 97.0177 143.942C97.3382 144.454 97.1779 144.806 95.9922 146.375C93.0117 150.218 92.4349 152.011 94.0052 152.395C94.4539 152.491 94.8064 152.811 94.8064 153.067C94.8064 153.323 94.4539 154.796 94.0052 156.365C92.9797 160.016 92.9476 160.848 93.9411 160.848C94.9346 160.848 95.3192 160.496 97.5304 157.582L99.3892 155.085L100.126 155.885C100.543 156.333 101.056 156.589 101.312 156.493C101.825 156.301 103.331 153.131 104.26 150.346C104.645 149.129 104.933 148.681 105.254 148.809C106.183 149.161 106.985 147.624 108.747 142.053C109.741 138.915 110.574 136.257 110.606 136.097C110.638 135.969 110.67 139.235 110.67 143.301C110.67 151.498 111.087 154.604 113.042 160.912C114.548 165.683 114.323 165.523 116.727 164.178C119.002 162.897 119.066 162.641 117.753 158.767C116.022 153.644 114.996 148.264 114.836 143.237C114.676 139.043 114.74 138.595 115.125 140.42C115.253 140.932 115.509 141.316 115.766 141.316C115.99 141.316 116.503 142.213 116.919 143.301C118.778 148.521 120.06 150.282 121.278 149.289C121.694 148.937 122.047 149.161 123.585 150.826C124.611 151.883 125.796 153.003 126.245 153.291C127.046 153.804 128.136 153.708 128.136 153.131C128.136 152.971 129.033 153.516 130.123 154.316C132.591 156.141 133.776 156.173 133.712 154.444C133.712 153.836 133.167 152.107 132.526 150.634C131.437 148.136 131.373 147.88 131.853 147.368C132.591 146.535 132.238 145.511 130.539 143.654L129.129 142.053L131.052 141.38C133.84 140.42 136.276 138.851 138.167 136.833C139.609 135.233 141.275 132.447 141.275 131.518C141.275 131.326 142.333 130.91 143.583 130.59C147.461 129.661 150.441 128.06 152.78 125.691C156.081 122.328 157.427 118.102 156.626 113.523C156.402 112.338 156.37 111.378 156.53 111.314C156.69 111.25 158.036 110.609 159.543 109.841C161.979 108.656 162.267 108.4 162.203 107.663C162.171 106.927 162.395 106.735 163.869 106.126C165.952 105.262 166.433 104.75 165.985 103.949C165.728 103.405 166.017 103.085 167.971 101.516C171.272 98.9222 173.772 96.3286 173.548 95.7202C173.227 94.9197 172.234 95.1118 169.478 96.4887C168.068 97.1931 166.85 97.7695 166.786 97.7695C166.69 97.7695 166.593 97.4493 166.529 97.033C166.337 95.7202 164.991 95.9443 162.684 97.7054C161.081 98.9542 160.504 99.2423 160.088 98.9862C159.319 98.5699 158.517 98.8901 156.915 100.235L155.537 101.388L155.312 99.4985C154.96 96.9049 154.191 94.5035 153.069 92.7744C152.556 91.9739 152.107 91.2055 152.075 91.0774C152.043 90.9173 152.78 90.2129 153.742 89.4444C155.248 88.2597 155.408 88.0035 155.248 87.171C155.088 86.3385 155.248 86.1144 156.818 84.9297C158.805 83.4247 159.223 82.6243 158.421 81.7597C157.908 81.1834 157.94 80.9272 159.383 76.9248C160.825 72.9864 160.889 72.6662 160.376 72.282C159.575 71.7056 159.19 71.9298 157.267 74.1391L155.601 76.0603L154.96 75.2278C154.159 74.1071 153.678 74.1711 152.588 75.5159L151.659 76.6366L151.114 75.3879C150.377 73.7549 148.23 71.6736 146.499 70.9692C145.762 70.649 145.121 70.2647 145.121 70.1367C145.121 70.0086 145.41 68.984 145.794 67.8953C147.108 64.021 146.211 60.2106 143.262 57.0407C142.461 56.1762 142.013 55.4718 142.205 55.3437C142.397 55.2476 142.557 54.7673 142.557 54.3191C142.557 53.7747 143.006 53.0703 143.999 52.1738C145.57 50.7009 145.826 49.6442 144.833 49.0999C144.224 48.7797 144.256 48.6836 145.313 46.8265C145.922 45.7378 146.403 44.6812 146.403 44.425C146.403 43.6886 145.506 43.5285 144.608 44.1369C143.839 44.6492 143.743 44.6492 143.198 44.1369C142.333 43.3364 141.211 43.7526 139.994 45.2576C139.16 46.3142 138.904 46.4743 138.423 46.1541C137.654 45.6738 136.853 46.026 136.5 46.9226C136.34 47.3388 136.052 48.0753 135.827 48.6196L135.443 49.5802L134.93 48.7797C133.68 46.9226 131.469 44.8733 129.77 44.0728C127.142 42.8241 123.874 42.8241 121.342 44.0728C119.227 45.1295 118.842 45.5137 117.592 47.8191C116.791 49.292 116.439 49.6122 115.285 49.9324C114.516 50.1565 113.843 50.3166 113.811 50.2526C113.747 50.1885 113.843 49.4201 114.035 48.5235C114.227 47.627 114.355 46.4103 114.291 45.8339C114.195 44.9053 114.067 44.7773 113.33 44.7773C112.817 44.8093 112.433 44.7132 112.433 44.6172C112.433 43.5285 111.023 37.2847 110.67 36.7084C110.125 35.9079 109.933 35.8438 109.324 36.2281ZM110.51 44.9374C110.51 45.7699 111.343 47.4029 111.824 47.563C112.112 47.659 112.048 48.4915 111.631 50.6368C111.087 53.3905 111.087 53.6146 111.599 54.191C112.112 54.7353 112.08 54.8954 111.471 56.4964C110.958 57.7451 110.862 58.3535 111.087 58.7377C111.343 59.122 111.151 59.9545 110.35 61.9397C109.773 63.4126 109.164 64.6613 109.004 64.6934C108.843 64.7574 108.331 63.8288 107.882 62.6441C106.76 59.6983 106.632 59.09 107.177 58.8978C107.754 58.6737 107.754 57.3929 107.145 55.1836C106.568 53.0063 106.536 52.2698 107.081 52.4619C107.69 52.6861 108.331 52.1417 108.363 51.3092C108.363 50.893 108.266 49.26 108.138 47.723C107.882 44.9694 107.914 44.8733 108.523 45.0654C108.939 45.1935 109.356 45.0975 109.612 44.8093C110.189 44.1369 110.51 44.1689 110.51 44.9374ZM129.514 46.1221C132.815 47.9152 134.449 50.957 134.706 55.6639C134.866 58.9619 134.962 59.3461 135.667 59.3461C136.308 59.3461 136.789 58.3215 136.789 56.9767C136.789 55.6319 137.237 55.5358 139.192 56.4323C140.987 57.2648 142.846 59.218 143.775 61.2353C144.416 62.6441 144.544 63.2845 144.416 64.9175C144.224 67.319 142.653 71.3534 141.115 73.3386C139.865 74.9716 139.769 75.7721 140.827 75.9322C141.307 75.9962 141.82 75.548 142.814 74.1071C144.096 72.314 144.224 72.2179 145.089 72.4741C146.403 72.8583 147.108 73.2746 148.037 74.2992C149.48 75.8361 149.608 76.3164 148.935 77.245C148.294 78.1095 147.236 81.8558 146.724 85.0577C146.531 86.2745 146.179 87.203 145.762 87.5873C144.961 88.3237 145.121 88.6119 146.788 89.4764C150.954 91.5897 153.806 96.8409 153.389 101.676C153.229 103.821 152.204 106.159 151.531 105.966C151.274 105.87 150.185 105.518 149.159 105.166C148.102 104.782 146.788 104.493 146.179 104.493C145.281 104.493 145.121 104.59 145.121 105.262C145.121 105.998 145.634 106.415 146.563 106.415C147.621 106.415 150.569 107.791 151.819 108.848C152.556 109.489 153.55 110.737 153.998 111.666C154.735 113.075 154.864 113.683 154.832 116.053C154.832 118.454 154.703 119.094 153.87 120.855C152.14 124.602 149.64 126.683 145.281 128.06C141.916 129.117 141.916 129.149 141.916 127.132C141.916 124.538 141.404 123.065 140.506 123.065C139.769 123.065 139.769 123.097 139.801 126.651C139.833 130.077 139.769 130.366 138.808 132.415C138.263 133.6 137.141 135.233 136.308 136.033C134.545 137.794 130.668 139.747 128.488 139.971L126.95 140.099L124.579 137.73C123.201 136.353 121.053 134.656 119.387 133.664C117.849 132.735 116.631 131.87 116.695 131.774C118.201 128.925 118.393 126.427 117.24 123.77C116.663 122.456 116.374 122.104 115.798 122.104C114.74 122.104 114.676 122.616 115.541 124.986C116.631 128.092 115.862 130.462 113.298 131.742C112.048 132.383 110.606 132.447 107.818 131.967C107.497 131.902 107.081 132.127 106.856 132.447C106.568 132.927 106.632 133.119 107.081 133.439C107.818 134.016 107.786 134.176 106.696 134.72C105.03 135.585 103.011 135.905 101.152 135.553C98.2996 135.008 95.4474 133.215 95.4474 131.967C95.4474 131.646 95.223 131.294 94.9666 131.198C94.2616 130.91 93.5245 128.028 93.5245 125.435C93.5245 123.033 93.2681 122.552 92.1785 123.129C91.3773 123.513 91.4094 127.164 92.2426 129.821C92.5631 130.91 92.7874 131.935 92.6913 132.095C92.3708 132.607 89.166 133.311 87.0509 133.311C76.315 133.311 73.1423 118.934 82.7886 113.907C84.5832 112.979 85.096 112.05 84.0384 111.634C83.3654 111.378 80.4811 112.787 79.039 114.067L77.9173 115.028L76.9239 114.003C74.8728 111.89 74.0075 107.215 75.0972 104.141C75.5779 102.86 77.5969 100.331 78.2058 100.331C78.4622 100.331 84.5512 103.757 84.9358 104.141C85.0319 104.237 85.0319 104.91 84.9037 105.646C84.5832 107.279 84.9678 108.336 85.801 108.336C86.474 108.336 86.5702 108.144 86.9548 105.71C87.2432 103.949 89.5186 101.612 91.9862 100.491C93.5245 99.7867 94.6782 99.5305 96.8895 99.4024C99.7097 99.2103 99.7738 99.1783 99.7738 98.4098C99.7738 97.6094 99.7738 97.6093 96.7293 97.6414C93.0438 97.6734 90.8005 98.4419 88.2046 100.523C87.0509 101.484 86.4099 101.804 86.3138 101.548C86.2177 101.324 85.8331 99.7867 85.3844 98.1537L84.6473 95.2079L85.5126 93.3508C87.147 89.8606 90.8646 87.4912 95.896 86.6587C97.4984 86.4025 98.8764 86.1464 99.0367 86.0503C99.4533 85.7622 99.3251 84.6415 98.8444 84.4494C98.2034 84.1932 94.0693 84.8656 92.1465 85.474C91.2812 85.7622 90.512 85.9223 90.4159 85.8262C90.3518 85.7301 90.1595 84.7055 89.9993 83.5208C89.6467 80.7351 90.0634 77.8854 91.3132 74.6514C92.1465 72.5061 92.6592 71.7056 94.4539 69.9446C96.8254 67.5111 98.1714 66.7746 101.088 66.2943C103.844 65.814 106.44 66.3263 108.907 67.8313C109.965 68.4717 111.087 68.9519 111.407 68.8879C112.208 68.7278 112.272 67.4791 111.503 67.0308C111.119 66.8387 110.83 66.5185 110.83 66.2943C110.83 66.0702 111.503 64.3091 112.304 62.388C114.452 57.2008 114.452 57.2008 114.099 56.5924C113.779 55.9841 114.804 52.3339 115.445 51.8856C115.637 51.7575 116.823 51.6935 118.041 51.7255C120.252 51.8215 120.284 51.8215 120.284 51.0211C120.284 50.4447 120.092 50.1885 119.579 50.1245C119.163 50.0605 118.842 49.8363 118.842 49.6122C118.842 49.0038 120.156 47.1787 121.118 46.4743C123.457 44.7452 126.694 44.6172 129.514 46.1221ZM141.724 47.659C142.237 48.0432 142.269 48.2354 141.948 49.0679C141.66 49.7403 141.628 50.1885 141.884 50.6368C142.141 51.1491 142.045 51.4053 141.243 52.1738C140.699 52.6861 140.122 53.4225 139.994 53.8068C139.737 54.4471 139.641 54.4792 138.167 54.0949C136.436 53.6466 136.276 53.2944 136.885 51.5013C137.205 50.6048 137.558 50.1886 138.103 50.0605C138.519 49.9644 139.288 49.26 139.833 48.5556C140.923 47.0186 140.923 47.0506 141.724 47.659ZM105.703 62.42C106.055 63.2525 106.344 64.053 106.344 64.2131C106.344 64.4692 103.203 64.2771 102.882 63.9889C102.53 63.6687 104.325 60.9471 104.901 60.9471C104.966 60.9471 105.318 61.6195 105.703 62.42ZM153.934 78.2376C154.191 79.0061 155.28 79.0701 156.242 78.3977L156.947 77.8854L156.306 79.7425C155.953 80.7671 155.761 81.9518 155.857 82.4001C155.985 83.1045 155.729 83.3927 154.062 84.5774C152.268 85.8582 152.14 86.0183 152.236 87.075C152.332 88.0035 152.172 88.2597 151.37 88.804C150.409 89.4124 150.377 89.4124 149.351 88.772C148.166 88.0035 148.166 87.8754 148.839 84.2893C149.512 80.511 149.576 80.3829 150.088 80.7991C150.858 81.4395 151.723 80.8632 152.524 79.1982C153.357 77.4691 153.646 77.277 153.934 78.2376ZM72.8218 86.3705C74.3921 88.2597 75.1292 88.6759 75.8022 88.0996C76.1227 87.8434 76.3791 87.8114 76.4432 88.0035C76.5073 88.1636 77.3084 89.7646 78.2378 91.5257C79.9684 94.8237 80.7375 95.4641 81.8271 94.5675C82.2117 94.2473 82.3079 94.3754 82.4681 95.1118C82.5963 95.5921 82.7886 96.2966 82.9488 96.6488C83.3975 97.6093 83.9102 99.7547 83.9102 100.555C83.9102 101.195 83.6859 101.131 81.1221 99.6266C75.3856 96.3606 74.5523 95.7842 74.9049 95.432C75.6099 94.7276 75.2253 93.9271 73.1743 91.8459C72.0206 90.6611 71.0912 89.5725 71.0912 89.4444C71.0912 89.3163 71.3155 89.1242 71.5719 88.9961C72.277 88.74 72.1488 87.6193 71.2515 85.6661C70.3221 83.6489 70.258 83.2646 71.0271 84.1932C71.3155 84.5774 72.1488 85.57 72.8218 86.3705ZM165.696 100.331C166.209 100.331 165.888 100.683 164.446 101.772C163.325 102.604 162.363 103.629 162.171 104.109C161.947 104.75 161.498 105.134 160.536 105.454C158.966 105.966 158.132 106.799 158.357 107.663C158.485 108.176 158.197 108.4 156.883 108.944L155.28 109.617L154.383 108.592L153.518 107.535L154.255 106.094C155.28 104.077 158.132 101.356 158.645 101.868C159.319 102.54 159.96 102.284 162.075 100.651C164.062 99.1143 164.158 99.0823 164.574 99.6906C164.831 100.043 165.344 100.331 165.696 100.331ZM118.265 135.297C120.989 136.93 122.047 137.826 122.047 138.466C122.047 138.851 122.816 139.651 124.066 140.548C125.155 141.348 126.662 142.597 127.399 143.269C128.553 144.358 128.713 144.646 128.392 145.127C128.104 145.575 128.328 146.279 129.546 148.777C130.379 150.474 131.02 152.043 130.956 152.203C130.892 152.395 129.963 151.755 128.873 150.794C127.783 149.801 126.79 149.001 126.662 149.001C126.534 149.001 126.181 149.225 125.893 149.481C125.38 149.929 125.188 149.801 123.489 147.816C122.111 146.183 121.374 145.607 120.637 145.479C119.675 145.319 119.611 145.191 118.586 141.957C118.009 140.099 117.304 138.146 117.08 137.634C116.567 136.545 116.118 134.272 116.407 134.272C116.503 134.272 117.336 134.72 118.265 135.297ZM107.337 140.324C106.087 144.23 105.959 144.486 105.126 144.582C104.325 144.678 104.132 144.998 102.914 148.2C102.177 150.122 101.504 151.979 101.408 152.331C101.28 152.875 101.216 152.875 100.735 152.395C100.03 151.691 99.2931 152.139 97.7548 154.124C97.1138 154.989 96.4729 155.693 96.3447 155.693C96.2485 155.725 96.3447 154.956 96.6011 154.028C97.21 151.723 97.1779 151.082 96.3447 150.538L95.6076 150.058L97.0497 148.168C97.8509 147.144 99.0367 145.607 99.6776 144.806C100.992 143.269 101.216 142.181 100.383 141.7C99.9661 141.476 100.255 141.06 102.145 139.427C103.395 138.37 104.677 137.474 104.998 137.474C105.286 137.442 106.183 137.09 106.985 136.673C107.786 136.289 108.491 135.969 108.523 136.033C108.587 136.097 108.042 138.018 107.337 140.324ZM113.362 149.641C113.907 152.619 114.9 156.461 115.83 159.311C116.599 161.681 116.631 162.449 115.926 162.449C115.509 162.449 115.093 161.264 114.163 157.518C112.913 152.523 112.433 148.585 112.497 143.718L112.529 139.235L112.753 143.397C112.881 145.671 113.17 148.489 113.362 149.641Z" fill="#274446"/>
<path d="M85.36 109.61C83.9399 111.03 84.0759 112.131 86.2643 116.57C86.456 116.922 86.219 117.06 85.2648 117.124C84.2322 117.217 84.022 117.329 83.9457 117.949C83.8447 118.544 84.1373 118.944 85.2852 119.824C86.3837 120.655 86.8494 121.228 87.1193 122.194C87.9312 125.042 92.2961 127.156 98.7013 127.774C102.39 128.141 102.442 128.139 101.92 128.957C101.178 130.144 102.223 131.028 105.131 131.632C106.458 131.888 107.501 132.18 107.497 132.283C107.493 132.386 106.893 132.59 106.164 132.825C104.239 133.365 101.102 132.694 99.915 131.507C99.1484 130.74 98.3612 130.489 96.1848 130.241C92.8276 129.939 89.4993 128.915 87.3684 127.534C86.0124 126.714 85.594 126.242 84.7842 124.628C84.2855 123.594 83.2901 122.116 82.5998 121.372C81.5137 120.232 81.3242 119.829 81.3593 118.31C81.3799 117.151 81.6458 116.292 82.1281 115.81C82.6372 115.301 82.8186 114.625 82.6847 113.473C82.4849 111.397 83.1939 109.748 84.5336 109.052C86.003 108.324 86.4049 108.565 85.36 109.61Z" fill="#C5D2CD"/>
<path d="M109.983 74.96C109.803 75.7104 109.897 76.7166 110.267 77.941C110.669 79.3178 110.721 79.963 110.434 80.5203C109.966 81.3928 110.263 83.0496 111.045 83.8914C111.699 84.5962 112.139 84.4796 111.788 83.7479C111.685 83.4793 111.617 82.7767 111.64 82.1721C111.698 81.1335 111.757 81.0788 112.363 81.0628C113.158 81.0537 113.587 80.7285 113.259 80.3761C112.769 79.8476 111.962 76.6586 112.109 75.7935C112.361 74.1375 113.285 73.7166 114.632 74.6167C115.315 75.0765 115.413 74.9854 116.461 73.2824C116.724 72.8566 116.857 72.8425 117.166 73.1753C117.693 73.743 119.3 73.782 119.888 73.2356C120.143 72.9988 120.355 72.4009 120.356 71.8901C120.356 71.3792 120.526 70.8934 120.718 70.8246C121.218 70.6155 120.902 69.9608 120.173 69.7264C119.407 69.4529 119.269 69.6181 119.108 70.8612C119.029 71.4449 118.935 71.9335 118.876 71.9881C118.837 72.0246 118.411 71.7632 117.951 71.425C116.959 70.6324 115.954 70.6908 115.032 71.5469C114.679 71.8747 114.294 72.0501 114.203 71.9522C114.094 71.8347 113.564 71.8535 113.03 71.9478C111.581 72.2361 110.322 73.5153 109.983 74.96Z" fill="#C5D2CD"/>
<path d="M97.6384 89.3458C96.5102 90.4951 95.599 92.1729 95.5713 93.0916C95.5531 93.569 95.3305 93.9465 94.9119 94.1882C93.8985 94.7733 93.742 95.1127 93.4859 97.3148C93.197 99.8161 93.2649 101.053 93.7857 101.904C94.1361 102.511 94.1716 102.522 94.1578 101.938C94.1638 101.592 94.4043 100.177 94.7023 98.7603C95.1921 96.4543 95.3267 96.1276 96.0757 95.6951C96.6925 95.339 97.0119 94.8745 97.4006 93.7163C98.2478 91.2662 100.977 88.8191 102.925 88.7839C103.708 88.7674 103.855 88.8693 104.475 89.9431C105.082 90.9936 105.193 91.0849 105.465 90.7414C105.622 90.5568 106.109 90.0267 106.522 89.5707C107.65 88.4213 107.988 88.5997 108.34 90.4818L108.601 91.9501L110.238 90.8179C111.589 89.8511 111.969 89.6943 112.452 89.8197C112.772 89.9153 113.115 90.1531 113.223 90.3399C113.33 90.5266 113.521 90.6031 113.632 90.5395C113.764 90.4632 113.663 90.0855 113.448 89.712C112.895 88.7548 111.51 88.3404 110.629 88.8492C109.99 89.2181 109.919 89.1968 109.478 88.331C109.195 87.8407 108.756 87.2846 108.462 87.0808C107.852 86.6859 106.185 86.9015 105.778 87.4169C105.633 87.6247 105.341 87.5758 105.042 87.3125C103.392 85.9305 99.9952 86.8645 97.6384 89.3458Z" fill="#C5D2CD"/>
<path d="M117.739 77.3459C117.675 77.9783 117.509 78.3344 117.225 78.4631C116.441 78.8211 116.427 79.6084 117.203 81.0446C117.793 82.1476 117.895 82.5246 117.696 83.1465C117.35 84.1762 117.319 84.9454 117.622 85.271C117.84 85.5062 117.89 85.4598 117.905 84.9745C117.92 84.657 118.102 84.0505 118.317 83.648C118.848 82.5825 118.83 82.3295 118.189 81.0044C117.396 79.4159 117.396 79.4159 118.015 79.2798C118.449 79.1796 118.532 79.0016 118.545 78.1135C118.556 76.8899 118.973 76.4025 119.909 76.5094C120.261 76.5536 120.779 76.5439 121.063 76.4823C121.531 76.3847 121.514 76.3666 120.694 76.0843C119.655 75.7346 118.518 75.7462 118.102 76.133C117.952 76.2722 117.787 76.8297 117.739 77.3459Z" fill="#C5D2CD"/>
<path d="M123.925 52.5838C123.198 53.2152 122.555 53.9748 122.515 54.222C122.438 54.4814 121.616 54.9494 120.699 55.2542C119.195 55.754 118.886 56.0514 118.109 57.6349C117.17 59.4672 116.394 65.2212 116.929 66.0958C117.096 66.3523 117.528 65.0783 117.895 63.2412C118.954 58.0947 120.385 55.9041 122.222 56.7748C122.706 57.0039 122.891 56.8255 123.133 56.0825C123.553 54.7734 125.688 52.7388 126.908 52.4891C127.555 52.3521 128.367 52.589 129.137 53.1906C130.172 53.977 130.597 54.0306 131.856 53.6513C133.555 53.1257 133.442 52.5396 131.676 52.6197C130.994 52.6514 130.026 52.3106 129.509 51.8587C128.595 51.0708 127.042 50.8076 125.831 51.2099C125.501 51.3196 124.616 51.9646 123.925 52.5838Z" fill="#C5D2CD"/>
<path d="M102.383 117.537C101.865 117.139 101.274 116.814 101.104 116.82C100.922 116.804 100.5 116.321 100.174 115.753C99.639 114.821 99.3998 114.656 98.2427 114.353C96.8987 113.975 92.9703 114.235 92.4612 114.708C92.3132 114.853 93.218 114.969 94.4883 114.965C98.0511 114.976 99.6996 115.632 99.3685 116.97C99.2814 117.322 99.4249 117.421 99.9512 117.482C100.878 117.585 102.517 118.729 102.848 119.506C103.026 119.918 102.978 120.489 102.682 121.082C102.299 121.876 102.32 122.166 102.742 122.951C103.32 124.009 103.694 123.855 103.403 122.693C103.29 122.244 103.386 121.554 103.617 121.15C104.018 120.437 103.983 119.369 103.553 118.619C103.435 118.414 102.887 117.912 102.383 117.537Z" fill="#C5D2CD"/>
<path d="M126.476 95.5503C123.703 97.863 121.903 101.291 121.942 104.09C121.971 105.309 122.305 105.023 122.95 103.256C123.25 102.391 124.008 100.98 124.625 100.089C125.663 98.6091 128.26 96.2372 129.022 96.0507C129.225 96.001 129.644 96.2815 129.953 96.6655C130.821 97.6788 131.56 97.7278 134.939 96.9009C137.784 96.2046 137.917 96.1976 138.035 96.6794C138.206 97.3781 137.966 98.0495 137.297 98.7241C136.762 99.2891 136.711 99.3015 136.136 98.9316C135.41 98.4964 134.249 98.7039 133.198 99.4717C132.583 99.9286 132.425 99.9419 131.66 99.5673C131.151 99.3598 130.483 99.2681 130 99.3862C128.329 99.8206 126.471 102.241 126.51 103.943C126.537 104.6 126.574 104.642 126.753 104.164C127.484 102.198 128.838 100.692 130.134 100.375C130.769 100.219 131.741 100.671 131.865 101.177C131.965 101.586 132.208 101.476 133.438 100.562C134.924 99.4834 135.589 99.4484 135.995 100.447L136.328 101.259L137.054 100.264C137.967 99.045 138.444 98.9028 139.006 99.659C139.42 100.247 139.445 100.241 139.151 99.3683C138.886 98.6161 138.932 98.477 139.39 98.3651C140.152 98.1785 141.283 98.9487 141.714 99.9411C142.024 100.657 141.981 100.923 141.544 101.668L141.023 102.51L141.905 102.703C142.39 102.814 142.817 103.016 142.84 103.113C142.976 103.667 142.719 104.266 141.985 105.007L141.217 105.833L142.081 105.622C143.656 105.236 144.746 102.646 143.588 101.985C143.337 101.842 143.296 101.673 143.479 101.322C144.121 100.093 142.447 97.1061 140.838 96.5808C140.429 96.451 140.055 96.1339 139.991 95.8689C139.601 94.2789 138.076 93.9882 134.684 94.8695C132.282 95.5083 132.016 95.5223 131.359 95.1469C130.983 94.9324 130.49 94.568 130.31 94.3822C129.596 93.6634 128.267 94.0652 126.476 95.5503Z" fill="#C5D2CD"/>
<path d="M137.998 65.9403C137.522 65.2518 136.625 64.5889 135.336 63.9803C133.898 63.2851 133.33 62.8529 133.094 62.2231C132.741 61.2213 131.154 60.2395 129.862 60.2306C128.78 60.2231 128.536 60.6496 129.406 60.9127C129.706 61.0289 130.334 61.4901 130.812 61.9503C131.618 62.7553 131.617 62.841 131.163 63.3232C130.557 63.9472 130.493 64.5178 131.034 64.5215C131.846 64.5271 135.322 65.5337 135.918 66.2802C137.081 67.6873 137.694 69.7469 135.918 70.1343C134.751 70.4473 135.257 71.3754 135.368 72.3366C135.514 72.8516 134.433 72.8252 133.922 72.8217C133.051 72.8156 131.78 74.0345 131.774 74.8911C131.771 75.2622 132.098 75.8641 132.516 76.2382C132.934 76.6122 133.201 77.0995 133.11 77.2987C132.896 77.8397 133.676 78.0736 134.43 77.6791C135.244 77.285 135.216 77.0564 134.321 76.0223C133.904 75.534 133.576 75.1034 133.577 75.0178C133.577 74.9607 134.119 74.8217 134.751 74.7119C136.165 74.5218 136.892 73.6988 136.901 72.357C136.905 71.843 137.058 71.4158 137.208 71.4169C137.389 71.4181 137.782 70.9926 138.116 70.5095C138.997 69.1737 138.92 67.2601 137.998 65.9403Z" fill="#C5D2CD"/>
<path d="M125.615 85.3301C125.101 85.6286 124.581 86.2265 124.078 87.1045C123.505 88.0836 123.167 88.4615 122.708 88.5933C121.978 88.7875 121.194 89.8554 121.115 90.7701C121.049 91.5358 121.337 91.7321 121.572 91.131C121.672 90.9253 122.033 90.5065 122.386 90.1941C123.002 89.6687 123.062 89.6739 123.378 90.0227C123.786 90.4865 124.186 90.5639 124.219 90.181C124.269 89.6067 125.659 87.4125 126.222 87.0325C127.283 86.2885 127.989 86.6066 128.163 87.8859C128.249 88.5363 128.35 88.545 129.842 88.2452C130.215 88.1703 130.29 88.2411 130.259 88.6027C130.206 89.2195 130.997 90.1879 131.603 90.2403C131.866 90.263 132.311 90.0656 132.599 89.7905C132.887 89.5155 133.247 89.3537 133.383 89.4297C133.754 89.6118 133.964 89.0727 133.727 88.5165C133.494 87.9178 133.33 87.9251 132.548 88.5004C132.178 88.7685 131.855 88.9763 131.795 88.971C131.754 88.9676 131.686 88.576 131.644 88.1223C131.589 87.1104 131.047 86.5493 130.097 86.4673C129.734 86.4358 129.44 86.3033 129.449 86.197C129.46 86.0693 129.181 85.7667 128.857 85.503C127.961 84.8041 126.602 84.751 125.615 85.3301Z" fill="#C5D2CD"/>
<path d="M107.989 98.183C107.452 98.8249 107.051 99.8658 106.806 101.269C106.518 102.84 106.252 103.503 105.707 103.898C104.836 104.505 104.31 106.295 104.645 107.543C104.925 108.588 105.401 108.71 105.423 107.801C105.456 107.481 105.734 106.753 106.05 106.171C106.613 105.18 106.695 105.158 107.281 105.467C108.043 105.886 108.61 105.796 108.47 105.273C108.26 104.489 109.047 100.918 109.609 100.145C110.657 98.6507 111.743 98.7331 112.588 100.343C113.014 101.162 113.152 101.125 114.982 100.012C115.44 99.7339 115.574 99.7915 115.706 100.285C115.931 101.127 117.444 102.029 118.271 101.807C118.63 101.711 119.123 101.236 119.373 100.734C119.623 100.231 120.021 99.8443 120.238 99.8797C120.816 99.9425 120.835 99.1286 120.254 98.5062C119.658 97.8258 119.445 97.9139 118.686 99.0509C118.326 99.583 117.998 100.013 117.915 100.035C117.86 100.05 117.582 99.5645 117.308 98.9844C116.749 97.6716 115.763 97.1891 114.467 97.5365C113.97 97.6695 113.518 97.6352 113.479 97.49C113.432 97.3158 112.917 97.0492 112.363 96.8555C110.841 96.3609 109.017 96.9431 107.989 98.183Z" fill="#C5D2CD"/>
<path d="M131.346 69.3245C130.86 68.7243 130.691 68.2685 130.808 67.8999C131.132 66.8791 130.475 66.1925 128.635 65.6682C127.226 65.2605 126.825 65.0304 126.455 64.3174C125.859 63.1197 125.23 62.4333 124.712 62.4297C124.337 62.4271 124.337 62.5124 124.737 62.9414C124.994 63.2274 125.364 63.912 125.533 64.4531C126.013 65.8489 126.242 66.0494 127.88 66.6007C129.863 67.2397 129.863 67.2397 129.483 67.9191C129.221 68.4004 129.306 68.6283 130.049 69.4007C131.079 70.4593 131.16 71.2556 130.319 72.0171C130 72.299 129.594 72.7793 129.419 73.0907C129.127 73.6002 129.156 73.6004 130.052 73.0951C131.18 72.4493 132.08 71.4041 132.085 70.6937C132.087 70.4379 131.746 69.8104 131.346 69.3245Z" fill="#C5D2CD"/>
<path d="M145.063 83.4955C144.711 83.0749 144.585 82.7531 144.664 82.49C144.883 81.7612 144.407 81.2812 143.095 80.9302C142.09 80.6571 141.802 80.4983 141.531 79.9962C141.093 79.1525 140.639 78.6724 140.271 78.6758C140.005 78.6783 140.005 78.7389 140.294 79.0389C140.481 79.2391 140.751 79.721 140.877 80.1033C141.234 81.0891 141.399 81.2288 142.569 81.6013C143.985 82.0321 143.985 82.0321 143.724 82.519C143.543 82.8639 143.606 83.0248 144.143 83.5647C144.886 84.3046 144.953 84.8692 144.365 85.4198C144.142 85.6237 143.858 85.9696 143.738 86.1927C143.537 86.558 143.557 86.5578 144.188 86.1885C144.981 85.7168 145.608 84.964 145.604 84.4593C145.602 84.2777 145.352 83.8359 145.063 83.4955Z" fill="#C5D2CD"/>
<path d="M98.9351 74.7954C98.6037 75.4926 98.266 75.8426 97.8827 75.8957C96.8221 76.0447 96.4872 76.9346 96.8094 78.8202C97.0505 80.2665 97.0166 80.7282 96.5333 81.3695C95.711 82.4251 95.3638 83.2888 95.5846 83.7579C95.7441 84.0967 95.8212 84.0604 96.0351 83.514C96.1818 83.1584 96.6394 82.5292 97.0544 82.1429C98.1057 81.1069 98.1875 80.8137 97.9768 79.0983C97.6961 77.034 97.6961 77.034 98.4726 77.0823C99.0201 77.1111 99.189 76.9361 99.5643 75.9318C100.074 74.5459 100.757 74.1288 101.807 74.5577C102.199 74.7234 102.808 74.8824 103.164 74.9057C103.75 74.9484 103.738 74.9223 102.895 74.3324C101.825 73.5944 100.493 73.2344 99.8504 73.537C99.619 73.6459 99.2005 74.2249 98.9351 74.7954Z" fill="#C5D2CD"/>
<path d="M142.375 126.648C144.043 125.158 145.464 122.946 145.593 121.712C145.665 121.07 146.009 120.574 146.61 120.269C148.064 119.532 148.313 119.084 148.884 116.135C149.53 112.785 149.559 111.118 148.926 109.948C148.503 109.115 148.455 109.099 148.416 109.884C148.374 110.349 147.902 112.24 147.352 114.131C146.448 117.208 146.231 117.641 145.156 118.185C144.271 118.634 143.786 119.243 143.135 120.781C141.726 124.035 137.725 127.192 135.038 127.143C133.958 127.127 133.765 126.983 133.018 125.508C132.286 124.065 132.142 123.937 131.734 124.386C131.498 124.626 130.775 125.315 130.162 125.908C128.494 127.398 128.046 127.142 127.747 124.593L127.534 122.605L125.167 124.048C123.21 125.282 122.672 125.474 122.018 125.281C121.587 125.137 121.139 124.8 121.009 124.544C120.879 124.287 120.623 124.175 120.465 124.255C120.275 124.351 120.377 124.864 120.637 125.377C121.303 126.692 123.169 127.317 124.433 126.676C125.35 126.212 125.446 126.244 125.967 127.43C126.309 128.103 126.858 128.872 127.242 129.161C128.043 129.722 130.361 129.514 130.973 128.841C131.193 128.569 131.591 128.649 131.976 129.018C134.112 130.957 138.883 129.869 142.375 126.648Z" fill="#C5D2CD"/>
<path d="M132.887 110.656C131.696 110.514 130.455 110.558 130.191 110.729C129.886 110.877 128.769 110.509 127.725 109.914C126.013 108.939 125.48 108.904 123.36 109.519C120.875 110.194 114.869 114.332 114.497 115.568C114.396 115.939 115.941 115.265 117.958 114.054C123.632 110.693 126.859 110.172 127.57 112.613C127.757 113.256 128.077 113.277 128.97 112.874C130.538 112.159 134.203 112.424 135.447 113.347C136.111 113.832 136.563 114.786 136.64 116.009C136.765 117.635 137.067 118.075 138.464 118.924C140.362 120.058 140.814 119.458 139.276 117.886C138.682 117.279 138.197 116.092 138.19 115.23C138.167 113.716 137.125 112.051 135.747 111.266C135.371 111.052 134.036 110.774 132.887 110.656Z" fill="#C5D2CD"/>
<path d="M101.79 107.882C102.737 108.618 103.59 109.522 103.657 109.829C103.77 110.149 104.824 110.672 105.984 110.983C107.887 111.493 108.291 111.843 109.366 113.77C110.659 115.998 112.023 123.163 111.419 124.303C111.23 124.638 110.605 123.072 110.021 120.793C108.348 114.414 106.419 111.775 104.197 113.012C103.612 113.338 103.37 113.128 103.018 112.214C102.405 110.603 99.612 108.215 98.0785 107.997C97.2654 107.876 96.2732 108.237 95.3582 109.052C94.1267 110.121 93.6023 110.222 92.0122 109.844C89.8651 109.317 89.9652 108.572 92.1641 108.534C93.0134 108.521 94.193 108.017 94.8037 107.409C95.8838 106.348 97.7958 105.896 99.3275 106.306C99.7452 106.418 100.89 107.159 101.79 107.882Z" fill="#C5D2CD"/>
<defs>
<linearGradient id="paint0_linear_4768_39425" x1="120" y1="0" x2="120" y2="200" gradientUnits="userSpaceOnUse">
<stop stop-color="#F3F3F5"/>
<stop offset="0.47" stop-color="#EEECEF"/>
<stop offset="1" stop-color="#E2E0E3"/>
</linearGradient>
</defs>
</svg>
